<?xml version="1.0" encoding="UTF-8" standalone="no"?>
<!-- Created with Inkscape (http://www.inkscape.org/) -->

<svg
   xmlns:dc="http://purl.org/dc/elements/1.1/"
   xmlns:cc="http://creativecommons.org/ns#"
   xmlns:rdf="http://www.w3.org/1999/02/22-rdf-syntax-ns#"
   xmlns:svg="http://www.w3.org/2000/svg"
   xmlns="http://www.w3.org/2000/svg"
   xmlns:xlink="http://www.w3.org/1999/xlink"
   xmlns:sodipodi="http://sodipodi.sourceforge.net/DTD/sodipodi-0.dtd"
   xmlns:inkscape="http://www.inkscape.org/namespaces/inkscape"
   width="40"
   height="52"
   viewBox="0 0 40 52"
   version="1.1"
   id="svg8"
   inkscape:export-filename="F:\Dev\Projects\GitHub\RecentEditors\web-assets\recenteditors-solution-logo.png"
   inkscape:export-xdpi="96"
   inkscape:export-ydpi="96"
   inkscape:version="0.92.4 (5da689c313, 2019-01-14)"
   sodipodi:docname="colored-file-icon.svg">
  <defs
     id="defs2">
    <linearGradient
       inkscape:collect="always"
       id="linearGradient4983">
      <stop
         style="stop-color:#e1eaf8;stop-opacity:1"
         offset="0"
         id="stop4979" />
      <stop
         style="stop-color:#c6bb93;stop-opacity:1"
         offset="1"
         id="stop4981" />
    </linearGradient>
    <linearGradient
       id="linearGradient4977"
       inkscape:collect="always">
      <stop
         id="stop4973"
         offset="0"
         style="stop-color:#c1b98f;stop-opacity:1" />
      <stop
         id="stop4975"
         offset="1"
         style="stop-color:#9b9b90;stop-opacity:0.90588236" />
    </linearGradient>
    <linearGradient
       id="linearGradient4961"
       inkscape:collect="always">
      <stop
         id="stop4957"
         offset="0"
         style="stop-color:#4f6a7a;stop-opacity:0.82736272" />
      <stop
         id="stop4959"
         offset="1"
         style="stop-color:#9c9c91;stop-opacity:1" />
    </linearGradient>
    <linearGradient
       inkscape:collect="always"
       id="linearGradient4672">
      <stop
         style="stop-color:#c6bb93;stop-opacity:1"
         offset="0"
         id="stop4668" />
      <stop
         style="stop-color:#a7b4cb;stop-opacity:1"
         offset="1"
         id="stop4670" />
    </linearGradient>
    <linearGradient
       inkscape:collect="always"
       xlink:href="#linearGradient4977"
       id="linearGradient4931"
       gradientUnits="userSpaceOnUse"
       x1="72.611443"
       y1="46.843151"
       x2="90.420349"
       y2="74.446167" />
    <linearGradient
       inkscape:collect="always"
       xlink:href="#linearGradient4672"
       id="linearGradient4933"
       gradientUnits="userSpaceOnUse"
       x1="72.611443"
       y1="46.843151"
       x2="90.420349"
       y2="74.446167" />
    <linearGradient
       inkscape:collect="always"
       xlink:href="#linearGradient4961"
       id="linearGradient4935"
       gradientUnits="userSpaceOnUse"
       x1="77.968582"
       y1="39.164581"
       x2="78.902489"
       y2="72.839027" />
    <linearGradient
       inkscape:collect="always"
       xlink:href="#linearGradient4983"
       id="linearGradient4985"
       x1="59.375"
       y1="60.17857"
       x2="24.821428"
       y2="15.892857"
       gradientUnits="userSpaceOnUse"
       gradientTransform="matrix(0.84063812,0,0,0.93107347,53.113,0.497081)" />
  </defs>
  <sodipodi:namedview
     id="base"
     pagecolor="#ffffff"
     bordercolor="#666666"
     borderopacity="1.0"
     inkscape:pageopacity="0.0"
     inkscape:pageshadow="2"
     inkscape:zoom="7.9195959"
     inkscape:cx="12.713576"
     inkscape:cy="19.065434"
     inkscape:document-units="px"
     inkscape:current-layer="layer2"
     showgrid="false"
     fit-margin-top="0"
     fit-margin-left="0"
     fit-margin-right="0"
     fit-margin-bottom="0"
     units="px"
     inkscape:snap-bbox="true"
     inkscape:bbox-paths="true"
     inkscape:bbox-nodes="true"
     inkscape:snap-bbox-edge-midpoints="true"
     inkscape:snap-bbox-midpoints="true"
     inkscape:snap-intersection-paths="false"
     inkscape:object-paths="false"
     inkscape:snap-smooth-nodes="false"
     inkscape:snap-midpoints="false"
     inkscape:snap-object-midpoints="true"
     inkscape:snap-center="true"
     inkscape:snap-others="false"
     inkscape:object-nodes="false"
     inkscape:snap-global="false"
     inkscape:window-width="2100"
     inkscape:window-height="1284"
     inkscape:window-x="2391"
     inkscape:window-y="-9"
     inkscape:window-maximized="1" />
  <metadata
     id="metadata5">
    <rdf:RDF>
      <cc:Work
         rdf:about="">
        <dc:format>image/svg+xml</dc:format>
        <dc:type
           rdf:resource="http://purl.org/dc/dcmitype/StillImage" />
        <dc:title></dc:title>
      </cc:Work>
    </rdf:RDF>
  </metadata>
  <g
     inkscape:label="Ebene 1"
     inkscape:groupmode="layer"
     id="layer1"
     transform="translate(-143.03268,-169.7864)"
     style="display:none">
    <path
       inkscape:connector-curvature="0"
       id="path41"
       d="m 149.75615,232.64377 -0.299,-3.6113 -5.52449,-0.59371 c -6.54324,-0.70322 -8.22602,-1.86969 -8.62428,-5.97836 -0.29195,-3.01215 -0.38825,-3.06684 -6.41418,-3.64287 -3.62591,-0.34642 -6.46373,-1.13109 -6.9671,-1.926 -0.94469,-1.49185 -1.2185,-53.7456 -0.29419,-56.15416 0.50523,-1.31656 3.11905,-1.52327 19.26277,-1.52327 h 18.67819 l 3.4216,3.7873 c 2.02308,2.2393 4.67892,4.04972 6.49781,4.42935 1.69778,0.35419 5.01812,2.5097 7.40979,4.80999 2.38347,2.29241 5.70122,4.52446 7.37284,4.96007 1.67159,0.43561 5.89682,3.50007 9.38933,6.80985 l 6.35014,6.01787 v 21.59 c 0,11.87448 -0.26307,22.27544 -0.58455,23.11324 -0.51175,1.33357 -3.62294,1.5233 -24.98019,1.5233 H 150.055 Z m 41.41835,-6.25958 c -0.22156,-1.56073 -0.84642,-2.07692 -2.23375,-1.84554 -2.90867,0.48511 -4.09367,2.00356 -2.39948,3.07467 2.71012,1.71337 4.96613,1.11488 4.63323,-1.22913 z m -12.61508,-39.58001 c -0.39745,-1.20286 -13.12046,-2.06236 -16.81241,-1.13572 -5.1182,1.2846 -1.57885,2.37525 7.50007,2.31123 6.83735,-0.0481 9.57081,-0.39326 9.31234,-1.17551 z m -27.32465,-8.81134 c 1.90145,-0.79447 5.29122,-1.44454 7.53279,-1.44454 2.24158,0 3.66388,-0.34716 3.1607,-0.77158 -0.50315,-0.42437 -4.37759,-0.53271 -8.60979,-0.24082 -6.31037,0.43534 -7.75262,0.83409 -8.01545,2.21611 -0.3954,2.07899 1.36158,2.15028 5.93175,0.24083 z m -14.44521,-9.63013 c 1.90149,-0.79448 5.29126,-1.44453 7.5328,-1.44453 2.24157,0 3.66391,-0.34716 3.16072,-0.77158 -0.50314,-0.42435 -4.37758,-0.53272 -8.60978,-0.24084 -6.31037,0.43536 -7.75262,0.83409 -8.01549,2.21613 -0.39536,2.07899 1.36158,2.15028 5.93175,0.24082 z"
       style="fill:#dbe2eb;stroke-width:0.96301186" />
    <path
       inkscape:connector-curvature="0"
       id="path39"
       d="m 150.57361,232.16226 -0.29603,-4.09282 -5.52453,-0.5937 c -6.5432,-0.70318 -8.22597,-1.86969 -8.62423,-5.97833 -0.29122,-3.00407 -0.40537,-3.0701 -6.46599,-3.73849 -3.39326,-0.37421 -6.58759,-1.09841 -7.09852,-1.60934 -1.07726,-1.07725 -2.25713,-50.56748 -1.29682,-54.39379 l 0.63795,-2.54169 h 18.76287 18.76288 l 3.42161,3.7873 c 2.02308,2.2393 4.67892,4.04972 6.49781,4.42935 1.69778,0.35419 5.01813,2.5097 7.40979,4.80999 2.38348,2.29241 5.70122,4.52446 7.37284,4.96007 1.68126,0.43812 5.94198,3.54275 9.53576,6.94831 l 6.49648,6.15632 -0.62497,16.47448 c -0.34383,9.06095 -0.62626,19.39964 -0.6279,22.97481 l -0.003,6.50034 h -24.01994 -24.0199 z m 41.14296,-2.69611 c 0.90783,-1.46892 1.404,-29.69864 0.53146,-30.23792 -0.40492,-0.25009 -1.71238,0.86533 -2.90545,2.47903 l -2.16925,2.93406 2.01609,2.14602 c 2.31085,2.45975 2.48258,3.70855 0.86598,6.29714 -0.85413,1.3677 -0.87728,2.44038 -0.09,4.16844 1.3428,2.94713 0.5976,4.11893 -3.78369,5.94953 -4.19008,1.75073 -5.16077,3.03868 -3.65636,4.85135 1.73613,2.09193 8.16099,3.07915 9.19115,1.41235 z M 147.4041,210.24509 c 0.24492,-4.49733 0.44573,-13.28918 0.44606,-19.53749 l 6.4e-4,-11.36052 3.3492,-1.39936 c 1.84205,-0.76966 5.18321,-1.39942 7.42478,-1.39942 2.24158,0 3.66389,-0.35494 3.1607,-0.78859 -0.97766,-0.84271 -16.26984,-0.0722 -17.20579,0.86696 -0.78232,0.78499 -0.48217,36.886 0.35013,42.13366 0.0296,0.17673 0.49592,0.17265 1.03984,-0.008 0.54386,-0.18118 1.18928,-4.00927 1.43426,-8.50661 z m 13.94803,4.82372 c 0,-0.52967 -0.43335,-0.96303 -0.96299,-0.96303 -0.52967,0 -0.96302,0.43336 -0.96302,0.96303 0,0.52964 0.43335,0.96299 0.96302,0.96299 0.52964,0 0.96299,-0.43335 0.96299,-0.96299 z m -28.39319,-14.4538 c 0.2449,-4.49737 0.44572,-13.28922 0.44605,-19.53751 l 6.3e-4,-11.36054 3.34921,-1.39937 c 1.84206,-0.76966 5.18321,-1.39941 7.42475,-1.39941 2.24157,0 3.66392,-0.35495 3.16073,-0.78859 -0.96354,-0.83056 -16.26333,-0.0789 -17.18318,0.84431 -0.89905,0.90226 -0.63035,34.33088 0.33901,42.15634 0.0222,0.17636 0.48477,0.17265 1.02864,-0.008 0.54391,-0.18118 1.18933,-4.00927 1.43431,-8.50664 z m 38.38586,4.91019 8.78607,-0.66937 -7.70408,-0.71982 c -13.46365,-1.2579 -14.13131,-1.71922 -12.13449,-8.38403 1.35287,-4.51541 3.58117,-5.87447 9.93938,-6.06199 4.15313,-0.12264 5.06032,0.2086 6.90434,2.51905 l 2.12301,2.6601 -0.52709,-4.58611 -0.52708,-4.58611 -8.6671,-0.24527 c -4.76692,-0.13487 -9.1814,0.0904 -9.80997,0.5007 -0.73346,0.47866 -1.18677,4.01626 -1.26539,9.87526 -0.16748,12.48877 -0.30271,11.76298 2.04853,11.01678 1.1263,-0.35754 6.00156,-0.95116 10.83387,-1.31934 z"
       style="fill:#e7e4d7;stroke-width:0.96301186" />
    <path
       inkscape:connector-curvature="0"
       id="path37"
       d="m 150.72368,232.16226 -0.29603,-4.09282 -5.52453,-0.5937 c -6.5432,-0.70318 -8.22597,-1.86969 -8.62423,-5.97833 -0.29048,-2.99503 -0.42042,-3.07176 -6.31224,-3.72164 -3.3087,-0.36494 -6.45053,-0.93223 -6.98184,-1.26061 -0.61064,-0.37736 -0.96603,-11.02768 -0.96603,-28.94903 V 159.2141 h 18.29724 c 15.36602,0 18.29722,0.22453 18.29722,1.40041 0,1.5468 8.23843,8.22972 10.14524,8.22972 0.66066,0 3.30682,1.77243 5.88037,3.93876 2.57355,2.16628 6.41256,4.72908 8.5312,5.69507 2.11864,0.96602 6.5605,4.35695 9.87087,7.53546 l 6.01883,5.77907 v 22.23124 22.23124 h -24.01994 -24.0199 z m 41.14296,-2.69611 c 0.34346,-0.55599 0.77147,-7.57626 0.95076,-15.6006 0.31012,-13.87407 -0.26751,-18.05699 -2.49259,-18.05699 -0.63754,0 -0.63327,0.61615 0.0111,1.82308 0.75068,1.4027 0.51004,2.41512 -1.04368,4.39033 l -2.01935,2.56721 2.04054,2.1721 c 2.3352,2.48567 2.51034,3.72939 0.89048,6.3232 -0.85414,1.3677 -0.87729,2.44038 -0.09,4.16844 1.34279,2.94713 0.59759,4.11893 -3.7837,5.94953 -4.19007,1.75073 -5.16076,3.03868 -3.65635,4.85135 1.73613,2.09193 8.16099,3.07915 9.19115,1.41235 z M 147.47577,211.6807 c 1.50464,-32.26652 1.78263,-33.19608 9.93365,-33.2195 2.51587,-0.008 5.54935,-0.27454 6.74106,-0.59385 2.50155,-0.67036 2.87399,-2.76762 0.6435,-3.62353 -2.46103,-0.94439 -15.01946,-0.65987 -18.94073,0.42913 -4.29026,1.19144 -4.15054,-0.28529 -2.10149,22.20801 0.83039,9.11549 1.27163,17.52253 0.98056,18.68229 -0.29123,1.15976 -0.23935,2.39867 0.11523,2.75317 1.56639,1.56643 2.3363,-0.37744 2.62816,-6.63572 z m 14.02643,3.38811 c 0,-0.52967 -0.43335,-0.96303 -0.96299,-0.96303 -0.52967,0 -0.96302,0.43336 -0.96302,0.96303 0,0.52964 0.43335,0.96299 0.96302,0.96299 0.52964,0 0.96299,-0.43335 0.96299,-0.96299 z m -28.47162,-13.0182 c 1.50466,-32.26655 1.78261,-33.19611 9.93363,-33.21954 2.51591,-0.008 5.54936,-0.27455 6.7411,-0.59381 2.50155,-0.6704 2.87399,-2.76765 0.6435,-3.62356 -2.44209,-0.93713 -17.37796,-0.67336 -20.08179,0.35457 -3.03723,1.15473 -3.10766,2.89311 -0.95331,23.53006 0.83431,7.99204 1.28874,15.67192 1.00982,17.06643 -0.27899,1.39453 -0.23009,2.81234 0.10819,3.15077 1.53635,1.53631 2.30885,-0.44483 2.59888,-6.66499 z m 38.46429,3.47459 8.78607,-0.66937 -7.70408,-0.71982 c -13.46365,-1.2579 -14.13131,-1.71922 -12.13449,-8.38403 1.35168,-4.51149 3.58109,-5.87425 9.91719,-6.06199 4.28117,-0.12671 5.01841,0.17414 7.34027,2.99745 1.70641,2.07491 3.42417,3.13554 5.06889,3.12979 3.61448,-0.0111 4.02819,-0.97432 1.3316,-3.09544 -1.32386,-1.04136 -2.37485,-2.87214 -2.37485,-4.13695 0,-4.1109 -2.33446,-5.29596 -10.42119,-5.29007 -4.06699,0.003 -9.0823,0.47399 -11.1451,1.04673 l -3.75057,1.04138 0.62038,9.46658 c 0.75042,11.4508 1.16606,12.77774 3.74605,11.95888 1.06359,-0.33754 5.88752,-0.91497 10.71983,-1.28314 z"
       style="fill:#ced7e6;stroke-width:0.96301186" />
    <path
       inkscape:connector-curvature="0"
       id="path33"
       d="m 151.6086,232.02454 c 0,-4.81393 -0.78445,-5.39959 -7.23254,-5.39959 -4.903,0 -7.21263,-1.83931 -7.21263,-5.74384 0,-3.14268 -1.36185,-3.88629 -7.11727,-3.88629 -7.64258,0 -7.37366,1.06473 -7.60449,-30.10772 l -0.2049,-27.67359 17.5101,3e-4 c 16.52001,2.9e-4 17.54379,0.10671 18.10663,1.87988 0.64153,2.02138 7.83372,7.75054 9.72971,7.75054 0.63247,0 3.25555,1.77243 5.8291,3.93876 2.57354,2.16628 6.4126,4.72101 8.53119,5.67714 2.11865,0.95609 6.53806,4.31267 9.82098,7.45906 l 5.96888,5.72072 0.55421,22.30755 0.5542,22.30761 H 175.2252 151.60863 Z m 40.44688,-2.02953 c 0.65957,-0.79474 1.315,-3.59022 1.45646,-6.2122 0.14154,-2.62196 0.56866,-8.70203 0.94928,-13.5113 0.91182,-11.52023 -0.61141,-15.44757 -5.64017,-14.54224 -1.92115,0.34605 -7.35906,-4.91801 -7.35906,-7.12353 0,-4.3704 -2.2017,-5.31634 -12.37369,-5.31634 -7.10467,0 -9.888,0.37892 -11.60197,1.5794 l -2.25491,1.5794 0.6027,17.92161 c 0.33161,9.85687 0.74873,19.00497 0.9272,20.32909 0.17858,1.32415 0.39218,2.94924 0.47491,3.6113 0.17044,1.3641 5.7063,1.62031 7.70042,0.35643 1.00904,-0.63957 0.7466,-1.36165 -1.20378,-3.31201 -3.0966,-3.09659 -3.23576,-6.2006 -0.32716,-7.30193 1.1917,-0.45131 5.74194,-1.13571 10.11159,-1.52093 4.36966,-0.38522 7.94488,-1.02327 7.94488,-1.41793 0,-0.39463 -4.17114,-0.99152 -9.26917,-1.32638 -9.06303,-0.59534 -11.91709,-1.56051 -11.91709,-4.03005 0,-2.01442 2.79007,-2.59374 14.976,-3.10964 10.05761,-0.42579 11.82364,-0.27306 13.24142,1.14461 2.07844,2.07848 2.05702,3.0033 -0.12004,5.1803 -1.56084,1.56083 -1.6023,1.9871 -0.37318,3.83826 1.81323,2.73091 0.92668,4.78911 -2.40403,5.58115 -4.85437,1.15432 -7.69834,5.03272 -4.94036,6.73728 1.2648,0.78169 6.26636,2.06324 8.63324,2.21211 0.86206,0.0541 2.10704,-0.55168 2.76659,-1.34643 z m -19.7421,-27.35474 c -9.46833,-0.65984 -11.07466,-1.22786 -11.07466,-3.91619 0,-1.89311 7.13732,-7.73057 9.45194,-7.73057 0.75266,0 2.84914,1.30004 4.65889,2.88904 2.57558,2.26139 4.19896,2.88903 7.47254,2.88903 4.84291,0 7.34595,2.04091 5.70912,4.65502 -1.16117,1.8544 -3.98822,2.06599 -16.21783,1.21367 z m -23.55929,16.24607 c 1.84094,-1.84095 1.95361,-3.05717 1.84705,-19.93769 -0.12967,-20.53714 -0.15375,-20.47429 7.85384,-20.47429 2.50375,0 5.23772,-0.26306 6.07552,-0.58456 2.38565,-0.91544 1.78822,-3.21385 -1.12498,-4.32801 -3.492,-1.33553 -17.35999,-0.16413 -20.31701,1.71634 l -2.26051,1.43742 0.58429,17.00983 c 0.79563,23.16251 0.99845,25.23224 2.57007,26.22698 1.98014,1.25332 2.58826,1.11745 4.77173,-1.06602 z m -14.44517,-9.63013 c 1.84095,-1.84094 1.95361,-3.05717 1.84705,-19.93769 -0.12967,-20.53709 -0.15375,-20.47429 7.85385,-20.47429 2.50374,0 5.23771,-0.26306 6.07551,-0.58455 2.3834,-0.9146 1.78944,-3.21119 -1.12502,-4.34987 -3.29069,-1.28574 -19.32887,-0.25936 -21.28248,1.36202 -1.14657,0.95157 -1.29285,4.68058 -0.87369,22.27059 0.45095,18.92287 0.68522,21.26048 2.2449,22.40097 2.32468,1.69985 2.95521,1.61748 5.25988,-0.68718 z"
       style="fill:#b9c5d9;stroke-width:0.96301186" />
    <path
       inkscape:connector-curvature="0"
       id="path31"
       d="m 153.0901,232.46214 c 0.68225,-5.08662 -1.25212,-6.80022 -7.6764,-6.80022 -5.22578,0 -7.69963,-1.66513 -6.6269,-4.46055 1.11975,-2.91811 -2.1475,-5.16813 -7.52809,-5.18433 -2.69862,-0.008 -5.39237,-0.33308 -5.98614,-0.72226 -1.54828,-1.01471 -2.21627,-10.22754 -2.51256,-34.65377 l -0.25973,-21.42717 17.51009,1.6e-4 c 16.52009,1e-4 17.54379,0.10633 18.10663,1.87969 0.64154,2.02138 7.83372,7.75054 9.72972,7.75054 0.63246,0 3.25554,1.77243 5.82909,3.93876 2.57354,2.16628 6.4126,4.72101 8.5312,5.67714 2.11864,0.95609 6.57951,4.35202 9.91308,7.54642 l 6.06099,5.80808 0.19859,22.22042 0.19859,22.22047 -22.99834,-2.3e-4 -22.99834,-2.2e-4 z m 40.8769,-2.94816 c 1.5897,-3.1575 1.68666,-27.8205 0.123,-31.25259 -1.00007,-2.19492 -2.54297,-2.97543 -5.00547,-2.53212 -1.92117,0.34605 -7.35907,-4.91801 -7.35907,-7.12353 0,-4.3704 -2.20171,-5.31634 -12.37369,-5.31634 -14.44774,0 -13.77489,-1.12264 -13.50397,22.53172 0.12263,10.70515 -0.11413,20.00942 -0.52624,20.67608 -0.44013,0.71215 -0.0259,2.00933 1.00011,3.14497 1.6096,1.77862 2.55877,1.88752 11.89122,1.36425 5.57811,-0.31271 11.65877,-0.1608 13.51257,0.33754 1.8538,0.49836 5.09381,0.83223 7.20004,0.74186 3.03097,-0.13005 4.08229,-0.66632 5.04161,-2.5718 z m -23.55707,-6.49589 c -3.95661,-1.96914 -3.95661,-2.91141 0,-3.56003 1.72139,-0.28232 5.84643,-0.97236 9.1667,-1.53378 3.3203,-0.56144 6.46213,-0.75799 6.98185,-0.43676 1.8602,1.14965 0.89718,3.33235 -1.70334,3.86069 -1.45658,0.29604 -3.87515,1.17088 -5.37462,1.94438 -3.39475,1.7511 -5.10449,1.69938 -9.07059,-0.27453 z m 1.20378,-10.75329 c -3.70759,-0.31159 -7.33842,-0.95154 -8.06851,-1.42208 -2.48181,-1.59948 1.35554,-2.56135 12.62883,-3.16551 9.36466,-0.50185 11.05095,-0.36383 12.18037,0.997 1.05091,1.26633 1.07314,1.86596 0.11189,3.02405 -1.26017,1.51845 -4.30753,1.6209 -16.85269,0.56654 z m 3.17259,-10.72915 c -11.46826,-1.01976 -13.49775,-2.46885 -6.63146,-4.73495 2.88473,-0.95202 4.49266,-0.98803 6.8848,-0.15413 1.71657,0.59841 5.23676,1.088 7.82265,1.088 3.42252,0 4.86251,0.41941 5.29318,1.54172 0.6412,1.67098 -1.22338,3.31611 -3.54108,3.12434 -0.79452,-0.0656 -5.21713,-0.45498 -9.82809,-0.86498 z m -24.65478,16.90367 c 0.43676,-1.58896 0.75406,-10.6687 0.70516,-20.17722 -0.10152,-19.76204 -0.0915,-19.78774 7.88165,-19.78774 5.47652,0 7.59882,-0.70786 7.59882,-2.53443 0,-2.40219 -4.85731,-3.42782 -13.00066,-2.74509 -12.77722,1.07118 -12.1906,-0.0926 -11.89457,23.59764 0.13858,11.07077 -0.0548,20.43509 -0.42938,20.80963 -1.39977,1.39979 2.55937,4.30483 5.47018,4.01376 2.26885,-0.22675 3.04213,-0.89644 3.6688,-3.17655 z m -14.44517,-9.6301 c 0.43676,-1.58899 0.75406,-10.66872 0.70516,-20.17721 -0.10226,-19.85281 -0.13338,-19.7773 8.20119,-19.80253 2.67943,-0.008 5.47658,-0.39774 6.21582,-0.86584 2.08136,-1.31789 0.56302,-3.67984 -2.84694,-4.42879 -4.18682,-0.9196 -18.8793,0.38978 -20.03784,1.7857 -0.52556,0.63328 -1.04227,10.48303 -1.17977,22.48915 -0.27047,23.60139 -0.0296,24.70416 5.24076,24.17849 2.30467,-0.22972 3.07225,-0.889 3.70162,-3.17897 z"
       style="fill:#d1c9ab;stroke-width:0.96301186" />
    <path
       inkscape:connector-curvature="0"
       id="path29"
       d="m 153.14815,232.46214 c 0.68225,-5.08662 -1.25212,-6.80022 -7.6764,-6.80022 -5.22578,0 -7.69963,-1.66513 -6.6269,-4.46055 1.11976,-2.91811 -2.1475,-5.16813 -7.52809,-5.18433 -2.69862,-0.008 -5.38232,-0.33308 -5.96384,-0.72226 -1.46454,-0.98003 -2.40559,-13.99208 -1.59103,-21.99989 l 0.67488,-6.63494 0.8379,5.29655 c 0.46084,2.91312 0.90486,7.93698 0.9867,11.16414 0.1708,6.73783 1.59311,9.05914 5.55039,9.05914 2.26206,0 3.04469,-0.64958 4.35095,-3.61131 0.87602,-1.98621 1.911,-5.34472 2.29993,-7.46335 0.65105,-3.5465 0.71671,-3.61312 0.82767,-0.83988 0.0663,1.65674 0.76332,4.55058 1.54895,6.43087 1.05191,2.51753 1.21315,4.571 0.61171,7.79027 -0.94391,5.0525 0.608,7.32348 5.00463,7.32348 2.0342,0 2.88447,-0.74116 4.14276,-3.61126 0.87076,-1.98622 1.91015,-5.12805 2.3097,-6.98185 0.57881,-2.6854 0.75195,-2.88114 0.85173,-0.96302 0.0689,1.32415 0.70385,4.06936 1.41104,6.10049 0.85673,2.46068 1.03523,5.03134 0.53494,7.70407 -1.17803,6.29348 -0.008,6.89804 13.36381,6.91171 6.1981,0.008 13.88178,0.38303 17.07484,0.83712 8.35951,1.18889 8.50546,0.90304 9.23543,-18.08944 0.69974,-18.20527 0.27639,-19.85562 -5.39423,-21.02995 -4.6645,-0.96595 -5.33727,-1.58554 -6.17633,-5.68807 -1.01093,-4.94286 -3.66134,-5.84717 -15.30145,-5.2206 -5.86542,0.31567 -11.03105,1.11545 -12.66602,1.96095 -2.46632,1.2754 -2.82275,1.26688 -3.33954,-0.0797 -0.92945,-2.42204 0.2349,-3.25943 4.54039,-3.26518 9.52628,-0.0111 14.50727,-3.50492 10.11372,-7.09092 -1.97511,-1.61204 -3.38111,-1.75661 -12.48719,-1.28391 -6.42682,0.33345 -11.33998,1.09036 -13.14754,2.02508 -2.61156,1.3505 -2.94105,1.34905 -3.46454,-0.0148 -0.92946,-2.42208 0.2349,-3.25947 4.54034,-3.26521 9.37418,-0.0111 14.51813,-3.51012 10.24781,-6.96803 -1.69789,-1.37488 -3.92969,-1.68574 -11.85581,-1.65143 -5.50226,0.0222 -11.30741,0.5934 -13.29967,1.30496 -3.10382,1.10853 -3.60359,1.07399 -4.0934,-0.28306 -0.30679,-0.85013 -0.81049,-2.0874 -1.11912,-2.74946 -0.43754,-0.93865 3.16821,-1.20378 16.37185,-1.20378 13.99711,0 16.93294,0.23749 16.93294,1.36947 0,1.77473 7.2791,8.02953 11.33464,9.73961 1.73195,0.73034 5.19882,3.01237 7.70408,5.07125 2.5053,2.05883 5.9122,4.27543 7.57092,4.92579 3.61333,1.41667 14.70316,12.28437 15.31356,15.00682 0.2375,1.05932 0.5441,10.70196 0.68133,21.42813 l 0.24935,19.50208 -22.99833,-9.7e-4 -22.99835,-9.7e-4 z m 17.31983,-9.44405 c -3.95661,-1.96914 -3.95661,-2.91141 0,-3.56003 1.72139,-0.28232 5.84643,-0.97236 9.1667,-1.53378 3.32031,-0.56144 6.46213,-0.75799 6.98185,-0.43676 1.8602,1.14965 0.89718,3.33235 -1.70334,3.86069 -1.45658,0.29604 -3.87514,1.17088 -5.37462,1.94438 -3.39475,1.7511 -5.10449,1.69938 -9.07059,-0.27453 z m 1.20378,-10.75329 c -3.70759,-0.31159 -7.33842,-0.95154 -8.0685,-1.42208 -2.48181,-1.59948 1.35553,-2.56135 12.62882,-3.16551 9.36466,-0.50185 11.05095,-0.36383 12.18037,0.997 1.05091,1.26633 1.07314,1.86596 0.11189,3.02405 -1.26016,1.51845 -4.30752,1.6209 -16.85268,0.56654 z m 3.17259,-10.72915 c -11.46826,-1.01976 -13.49775,-2.46885 -6.63146,-4.73495 2.88473,-0.95202 4.49266,-0.98803 6.8848,-0.15413 1.71657,0.59841 5.23677,1.088 7.82265,1.088 3.42253,0 4.86251,0.41941 5.29318,1.54172 0.6412,1.67098 -1.22338,3.31611 -3.54108,3.12434 -0.79452,-0.0656 -5.21713,-0.45498 -9.82809,-0.86498 z"
       style="fill:#a7b4cb;stroke-width:0.96301186" />
    <path
       inkscape:connector-curvature="0"
       id="path27"
       d="m 155.78191,234.81054 c 0,-1.51198 1.67403,-1.85032 4.2548,-0.85999 2.51512,0.96518 1.72138,2.30452 -1.36577,2.30452 -1.92601,0 -2.88903,-0.48151 -2.88903,-1.44453 z m 37.55748,0.43368 c 0,-0.55595 0.59163,-2.18104 1.31471,-3.61131 1.65106,-3.26569 1.40823,-35.14829 -0.28307,-37.18637 -0.58733,-0.70768 -2.76824,-1.55858 -4.84646,-1.8909 -4.14184,-0.66231 -4.86276,-1.38776 -5.76558,-5.80188 -0.95506,-4.66977 -3.78248,-5.59203 -15.25114,-4.9747 -5.86543,0.31567 -11.03105,1.11545 -12.66602,1.96095 -2.46633,1.2754 -2.82276,1.26688 -3.33954,-0.0797 -0.92945,-2.42204 0.2349,-3.25943 4.54038,-3.26518 9.52628,-0.0111 14.50727,-3.50492 10.11372,-7.09092 -1.9751,-1.61204 -3.38111,-1.75661 -12.48719,-1.28391 -6.42682,0.33345 -11.33997,1.09036 -13.14754,2.02508 -2.61156,1.3505 -2.94105,1.34905 -3.46454,-0.0148 -0.92945,-2.42208 0.2349,-3.25947 4.54034,-3.26521 9.37419,-0.0111 14.51813,-3.51012 10.24781,-6.96803 -1.69789,-1.37488 -3.92968,-1.68574 -11.85581,-1.65143 -5.50226,0.0222 -11.30741,0.5934 -13.29967,1.30496 -3.10381,1.10853 -3.60359,1.07399 -4.0934,-0.28306 -0.30679,-0.85013 -0.81049,-2.0874 -1.11912,-2.74946 -0.43754,-0.93865 3.16821,-1.20378 16.37185,-1.20378 13.99711,0 16.93294,0.23749 16.93294,1.36947 0,1.77473 7.27911,8.02953 11.33464,9.73961 1.73195,0.73034 5.19882,3.01237 7.70409,5.07125 2.50529,2.05883 5.91219,4.27543 7.57091,4.92579 3.61334,1.41667 14.70316,12.28437 15.31356,15.00682 0.23751,1.05932 0.5441,10.70196 0.68133,21.42813 l 0.24936,19.50208 -2.64828,-9.7e-4 c -1.45658,-5.9e-4 -2.64828,-0.45594 -2.64828,-1.01193 z M 150.2955,224.07 c -0.33604,-0.87559 -0.0696,-3.36736 0.59174,-5.53731 0.66143,-2.16999 1.46369,-5.46214 1.78278,-7.31594 l 0.58018,-3.37055 0.8399,3.85206 c 1.71367,7.85929 1.85109,9.94065 0.78748,11.92802 -1.30042,2.42987 -3.72961,2.6651 -4.58208,0.44372 z m -14.44517,-9.63012 c -0.33604,-0.87559 -0.0655,-3.36737 0.60071,-5.53732 0.66635,-2.16995 1.47077,-5.67881 1.78751,-7.79744 l 0.57596,-3.85206 0.82752,4.33357 c 1.76048,9.21904 1.89172,11.60293 0.71664,13.01879 -1.56961,1.89129 -3.74975,1.81126 -4.50834,-0.16562 z m 48.34045,-4.18615 c -0.32753,-0.52964 0.0804,-0.96302 0.90619,-0.96302 0.82571,0 1.50133,0.43338 1.50133,0.96302 0,0.52968 -0.40778,0.96302 -0.90619,0.96302 -0.49841,0 -1.17399,-0.43334 -1.50133,-0.96302 z m -61.05604,-9.38937 c 0.0522,-1.98622 0.42474,-5.99474 0.82745,-8.90786 0.70596,-5.10693 0.73701,-5.15165 0.86777,-1.24906 0.0745,2.22613 0.62393,5.11931 1.22081,6.42931 1.32439,2.90671 0.36718,7.33891 -1.58509,7.33891 -1.02294,0 -1.39923,-1.02105 -1.33094,-3.6113 z"
       style="fill:#c6bb93;stroke-width:0.96301186" />
    <path
       inkscape:connector-curvature="0"
       id="path25"
       d="m 155.48344,234.81054 c 0,-1.51198 1.67403,-1.85032 4.2548,-0.85999 2.51512,0.96518 1.72139,2.30452 -1.36577,2.30452 -1.926,0 -2.88903,-0.48151 -2.88903,-1.44453 z m 37.55748,0.41818 c 0,-0.56446 0.53858,-1.97287 1.19689,-3.12978 0.81682,-1.43554 1.19904,-7.04636 1.20374,-17.66966 0.008,-13.82806 0.47614,-17.99097 1.87359,-16.59356 0.23231,0.23231 0.55717,8.97203 0.72223,19.4219 l 0.30011,18.99967 -2.64828,-9.7e-4 c -1.45657,-6.3e-4 -2.64828,-0.46299 -2.64828,-1.02746 z m -42.69353,-10.20881 c -0.92386,-0.92386 -0.78996,-4.62153 0.26825,-7.40456 1.32746,-3.49144 4.86791,-2.41423 4.86791,1.4811 0,4.84898 -2.88417,8.17533 -5.13604,5.92346 z m -14.44517,-9.63014 c -0.92389,-0.92385 -0.78996,-4.62152 0.26825,-7.40455 0.67888,-1.78559 1.41297,-2.2624 2.88904,-1.8764 1.54467,0.40397 1.97887,1.29582 1.97887,4.06462 0,4.56247 -2.87251,7.47988 -5.13604,5.21633 z m 47.99009,-5.13604 c -0.32753,-0.52964 0.0804,-0.96302 0.90619,-0.96302 0.82571,0 1.50133,0.43338 1.50133,0.96302 0,0.52968 -0.40778,0.96302 -0.90618,0.96302 -0.49842,0 -1.174,-0.43334 -1.50134,-0.96302 z m -61.15126,-9.03069 c 0,-4.07091 2.40222,-6.53942 3.37651,-3.46965 0.89889,2.8322 -0.22972,6.72227 -1.95035,6.72227 -0.97803,0 -1.42616,-1.02201 -1.42616,-3.25262 z"
       style="fill:#abadad;stroke-width:0.96301186" />
    <path
       style="fill:#000000;stroke-width:0.96301186"
       d=""
       id="path21"
       inkscape:connector-curvature="0" />
  </g>
  <g
     inkscape:groupmode="layer"
     id="layer2"
     inkscape:label="Ebene 2"
     transform="translate(-39.215219,-12.133629)">
    <g
       id="g5001"
       transform="translate(-28.687327,3.1818183)">
      <path
         sodipodi:nodetypes="cccccc"
         inkscape:connector-curvature="0"
         id="rect4676"
         d="m 69.990307,10.792043 25.687479,1e-6 10.137004,11.227534 -1e-5,37.092 H 69.990307 Z"
         style="fill:#f7f9fc;fill-opacity:1;stroke:url(#linearGradient4985);stroke-width:1.32705152;stroke-miterlimit:4;stroke-dasharray:none;stroke-opacity:1" />
      <g
         transform="matrix(0.84063812,0,0,0.93107347,27.850111,-12.200023)"
         id="g4657"
         style="fill-opacity:1;stroke:url(#linearGradient4935);stroke-width:2.92189121;stroke-miterlimit:4;stroke-dasharray:none;stroke-opacity:1">
        <path
           style="fill:none;fill-opacity:1;stroke:url(#linearGradient4931);stroke-width:2.92189121;stroke-linecap:butt;stroke-linejoin:miter;stroke-miterlimit:4;stroke-dasharray:none;stroke-opacity:1"
           d="M 50.12882,24.694148 H 80.685935 L 92.744631,36.752844 V 76.590735 H 50.12882 Z"
           id="path3767"
           inkscape:connector-curvature="0"
           sodipodi:nodetypes="cccccc" />
        <path
           style="fill:#c6bb93;fill-opacity:1;stroke:url(#linearGradient4933);stroke-width:2.92189121;stroke-linecap:butt;stroke-linejoin:miter;stroke-miterlimit:4;stroke-dasharray:none;stroke-opacity:1"
           d="m 80.685935,24.694148 -0.100114,12.110069 12.158814,-0.05137"
           id="path3769"
           inkscape:connector-curvature="0"
           sodipodi:nodetypes="ccc" />
      </g>
      <path
         inkscape:connector-curvature="0"
         id="path3771"
         d="M 76.174389,20.981488 H 91.669777"
         style="fill:#758ab2;fill-opacity:1;stroke:#8599bd;stroke-width:4.39354944;stroke-linecap:butt;stroke-linejoin:miter;stroke-miterlimit:4;stroke-dasharray:none;stroke-opacity:1" />
      <path
         inkscape:connector-curvature="0"
         id="path3773"
         d="M 76.174389,28.731938 H 102.15263"
         style="fill:#758ab2;fill-opacity:1;stroke:#8599bd;stroke-width:4.2676878;stroke-linecap:butt;stroke-linejoin:miter;stroke-miterlimit:4;stroke-dasharray:none;stroke-opacity:1" />
      <path
         inkscape:connector-curvature="0"
         id="path3773-8"
         d="M 76.174389,35.942432 H 102.15263"
         style="fill:#758ab2;fill-opacity:1;stroke:#8599bd;stroke-width:4.2676878;stroke-linecap:butt;stroke-linejoin:miter;stroke-miterlimit:4;stroke-dasharray:none;stroke-opacity:1" />
      <path
         inkscape:connector-curvature="0"
         id="path3773-83"
         d="M 76.174389,43.482537 H 102.15263"
         style="fill:#758ab2;fill-opacity:1;stroke:#8599bd;stroke-width:4.2676878;stroke-linecap:butt;stroke-linejoin:miter;stroke-miterlimit:4;stroke-dasharray:none;stroke-opacity:1" />
      <path
         inkscape:connector-curvature="0"
         id="path3773-83-7"
         d="M 76.174389,50.924251 H 96.195982"
         style="fill:#758ab2;fill-opacity:1;stroke:#8599bd;stroke-width:4.64542723;stroke-linecap:butt;stroke-linejoin:miter;stroke-miterlimit:4;stroke-dasharray:none;stroke-opacity:1" />
    </g>
  </g>
</svg>
